# xmcd CD database file
# Copyright (C) 1997 Ti Kan
# 
# Track frame offsets:
#     150
#     34835
#     54435
#     69152
#     94355
#     119950
#     135175
#     167012
#     188607
#     219314
#     237789
#     280081
#     305856
#     327176
# 
# Disc length: 4446 seconds
# 
# Revision: 1
# Processed by: cddbd v1.4b41PL1 Copyright (c) Steve Scherf et al.
# Submitted via: DiscPlay 4.0.4
# 
DISCID=c5115c0e
DTITLE=Guns N' Roses - Use Your Illusion II
DYEAR=1900
DGENRE=
TTITLE0=Civil War
TTITLE1=14 Years
TTITLE2=Yesterdays
TTITLE3=Knockin' On Heaven's Door
TTITLE4=Get In The Ring
TTITLE5=Shotgun Blues
TTITLE6=Breakdown
TTITLE7=Pretty Tied Up
TTITLE8=Locomotive
TTITLE9=So Fine
TTITLE10=Estranged
TTITLE11=You Could Be Mine
TTITLE12=Don't Cry (Alt. Lyrics)
TTITLE13=My World
EXTD=
EXTT0=
EXTT1=
EXTT2=
EXTT3=
EXTT4=
EXTT5=
EXTT6=
EXTT7=
EXTT8=
EXTT9=
EXTT10=
EXTT11=
EXTT12=
EXTT13=
PLAYORDER=
